# This file uses centimeters as units for non-parametric coordinates.

mtllib Arch-triangle.mtl
g default
v -5.500002 1.500000 3.000000
v 5.500000 1.500000 3.000000
v -5.500002 1.500000 3.000000
v 5.500000 1.500000 3.000000
v -5.500002 1.500000 -3.000000
v 5.500000 1.500000 -3.000000
v -5.500002 1.500000 -3.000000
v 5.500000 1.500000 -3.000000
v -0.000002 1.509999 3.000000
v -0.000002 7.500000 3.000000
v -0.000002 7.500000 -3.000000
v -0.000002 1.509999 -3.000000
v -8.000002 0.006198 3.000000
v 0.000000 8.993801 3.000000
v 0.000000 8.993801 -3.000000
v -8.000002 0.006198 -3.000000
v 8.000000 0.006198 3.000000
v 8.000000 0.006198 -3.000000
v -8.000002 0.006198 -3.000000
v 0.000000 0.021176 -3.000000
v 0.000000 0.021176 3.000000
v -8.000002 0.006198 3.000000
v 8.000000 0.006198 -3.000000
v 8.000000 0.006198 3.000000
v -5.500000 1.500000 2.000000
v -0.000002 1.509999 2.000000
v -0.000002 7.500000 2.000000
v -5.500000 1.500000 2.000000
v 5.500000 1.500000 2.000000
v 5.500000 1.500000 2.000000
v -5.500002 1.500000 -2.000000
v -0.000002 7.500000 -2.000000
v -0.000002 1.509999 -2.000000
v -5.500002 1.500000 -2.000000
v 5.500000 1.500000 -2.000000
v 5.500000 1.500000 -2.000000
vt 0.188945 0.935791
vt 0.200217 0.935791
vt 0.188945 0.947062
vt 0.200217 0.947062
vt 0.188945 0.958334
vt 0.200217 0.958334
vt 0.188945 0.969605
vt 0.200217 0.969605
vt 0.188945 0.980876
vt 0.200217 0.980876
vt 0.211488 0.935791
vt 0.211488 0.947062
vt 0.177674 0.935791
vt 0.177674 0.947062
vt 0.194596 0.935791
vt 0.194596 0.980876
vt 0.194596 0.947062
vt 0.194596 0.958334
vt 0.194596 0.969605
vt 0.188945 0.947062
vt 0.194596 0.947062
vt 0.194596 0.958334
vt 0.188945 0.958334
vt 0.188945 0.969605
vt 0.194596 0.969605
vt 0.194596 0.980876
vt 0.188945 0.980876
vt 0.200217 0.947062
vt 0.200217 0.958334
vt 0.200217 0.969605
vt 0.200217 0.980876
vt 0.188945 0.935791
vt 0.194596 0.935791
vt 0.194596 0.947062
vt 0.188945 0.947062
vt 0.188945 0.958334
vt 0.194596 0.958334
vt 0.194596 0.969605
vt 0.188945 0.969605
vt 0.200217 0.935791
vt 0.200217 0.947062
vt 0.200217 0.958334
vt 0.200217 0.969605
vt 0.194596 0.969605
vt 0.194596 0.969605
vt 0.200217 0.969605
vt 0.200217 0.969605
vt 0.200217 0.958334
vt 0.200217 0.958334
vt 0.200217 0.969605
vt 0.200217 0.969605
vt 0.200217 0.969605
vt 0.194596 0.958334
vt 0.194596 0.958334
vt 0.188945 0.980876
vt 0.200217 0.958334
vt 0.200217 0.947062
vt 0.200217 0.947062
vt 0.194596 0.969605
vt 0.194596 0.958334
vt 0.188945 0.958334
vt 0.194596 0.947062
vt 0.194596 0.947062
vt 0.188945 0.969605
vt 0.188945 0.969605
vt 0.194596 0.935791
vt 0.194596 0.935791
vt 0.200217 0.980876
vt 0.188945 0.935791
vt 0.188945 0.935791
vt 0.188945 0.947062
vt 0.188945 0.947062
vt 0.188945 0.947062
vt 0.188945 0.947062
vt 0.188945 0.947062
vt 0.188945 0.947062
vt 0.194596 0.947062
vt 0.200217 0.958334
vt 0.188945 0.935791
vt 0.188945 0.935791
vt 0.194596 0.980876
vt 0.194596 0.980876
vt 0.200217 0.980876
vt 0.200217 0.980876
vt 0.200217 0.969605
vt 0.200217 0.969605
vt 0.194596 0.969605
vt 0.194596 0.969605
vt 0.200217 0.958334
vt 0.194596 0.958334
vt 0.194596 0.958334
vt 0.188945 0.980876
vt 0.194596 0.947062
vt 0.194596 0.947062
vt 0.188945 0.947062
vt 0.188945 0.947062
vt 0.188945 0.958334
vt 0.188945 0.958334
vt 0.188945 0.969605
vt 0.194596 0.980876
vt 0.188945 0.969605
vt 0.188945 0.969605
vt 0.188945 0.980876
vt 0.200217 0.947062
vt 0.200217 0.947062
vt 0.194596 0.947062
vt 0.200217 0.947062
vt 0.200217 0.947062
vt 0.194596 0.958334
vt 0.200217 0.958334
vt 0.194596 0.969605
vt 0.194596 0.969605
vt 0.194596 0.980876
vt 0.194596 0.947062
vt 0.188945 0.958334
vt 0.194596 0.958334
vt 0.188945 0.958334
vt 0.194596 0.969605
vt 0.194596 0.969605
vt 0.188945 0.969605
vt 0.188945 0.958334
vt 0.188945 0.958334
vt 0.188945 0.969605
vt 0.194596 0.935791
vt 0.200217 0.935791
vt 0.200217 0.935791
vt 0.194596 0.935791
vt 0.200217 0.935791
vt 0.200217 0.935791
vt 0.200217 0.947062
vt 0.194596 0.947062
vt 0.194596 0.947062
vt 0.200217 0.947062
vt 0.194596 0.958334
vt 0.194596 0.958334
vt 0.200217 0.958334
vn 0.000000 0.000000 0.000000
vn 0.000000 0.000000 1.000000
vn 0.000000 0.000000 1.000000
vn 0.000000 0.000000 0.000000
vn -0.746954 0.664875 0.000000
vn 0.000000 1.000000 0.000000
vn 0.000000 1.000000 0.000000
vn -0.746954 0.664875 0.000000
vn -0.000000 0.000000 -0.000000
vn 0.000000 0.000000 -1.000000
vn -0.000000 0.000000 -1.000000
vn -0.000000 0.000000 -0.000000
vn 0.001872 -0.999998 0.000000
vn 0.000000 -1.000000 0.000000
vn 0.000000 -1.000000 0.000000
vn 0.001872 -0.999998 0.000000
vn 0.000000 0.000000 0.000000
vn 0.000000 0.000000 0.000000
vn 0.000000 0.000000 0.000000
vn 0.000000 0.000000 0.000000
vn 0.000000 0.000000 0.000000
vn 0.000000 0.000000 0.000000
vn 0.000000 0.000000 0.000000
vn 0.000000 0.000000 0.000000
vn 0.000000 0.000000 0.000000
vn 0.000000 0.000000 0.000000
vn 0.746954 0.664875 0.000000
vn 0.746954 0.664875 0.000000
vn 0.000000 0.000000 -0.000000
vn 0.000000 0.000000 -0.000000
vn -0.001872 -0.999998 0.000000
vn -0.001872 -0.999998 0.000000
vn -0.000000 0.000000 1.000000
vn -0.000000 0.000000 1.000000
vn -0.000000 0.000000 1.000000
vn -0.000000 0.000000 1.000000
vn -0.000000 0.000000 -1.000000
vn -0.000000 0.000000 -1.000000
vn -0.000000 0.000000 -1.000000
vn -0.000000 0.000000 -1.000000
vn 0.512930 -0.858430 0.000000
vn 0.512930 -0.858430 0.000000
vn 0.512930 -0.858430 0.000000
vn 0.512930 -0.858430 0.000000
vn 0.000000 0.000000 1.000000
vn 0.000000 0.000000 1.000000
vn 0.000000 0.000000 1.000000
vn 0.000000 0.000000 1.000000
vn -0.512930 -0.858430 0.000000
vn -0.512930 -0.858430 0.000000
vn -0.512930 -0.858430 0.000000
vn -0.512930 -0.858430 0.000000
vn 0.000000 0.000000 -1.000000
vn 0.000000 0.000000 -1.000000
vn 0.000000 0.000000 -1.000000
vn 0.000000 0.000000 -1.000000
vn 0.000000 0.000000 -1.000000
vn 0.000000 0.000000 -1.000000
vn 0.000000 0.000000 -1.000000
vn 0.000000 0.000000 -1.000000
vn -0.000000 0.000000 1.000000
vn -0.000000 0.000000 1.000000
vn -0.000000 0.000000 1.000000
vn -0.000000 0.000000 1.000000
vn -0.512930 0.858430 0.000000
vn -0.512930 0.858430 0.000000
vn -0.512930 0.858430 0.000000
vn -0.512930 0.858430 0.000000
vn 0.000000 0.000000 -1.000000
vn 0.000000 0.000000 -1.000000
vn 0.000000 0.000000 -1.000000
vn 0.000000 0.000000 -1.000000
vn 0.512930 0.858430 0.000000
vn 0.512930 0.858430 0.000000
vn 0.512930 0.858430 0.000000
vn 0.512930 0.858430 0.000000
vn 0.000000 0.000000 1.000000
vn 0.000000 0.000000 1.000000
vn 0.000000 0.000000 1.000000
vn 0.000000 0.000000 1.000000
vn -0.001818 0.999998 0.000000
vn -0.001818 0.999998 0.000000
vn -0.001818 0.999998 0.000000
vn -0.001818 0.999998 0.000000
vn 0.737154 -0.675725 0.000000
vn 0.737154 -0.675725 0.000000
vn 0.737154 -0.675725 0.000000
vn 0.737154 -0.675725 0.000000
vn 0.000000 0.000000 0.000000
vn 0.000000 0.000000 0.000000
vn 0.000000 0.000000 0.000000
vn 0.000000 0.000000 0.000000
vn 0.001818 0.999998 0.000000
vn 0.001818 0.999998 0.000000
vn 0.001818 0.999998 0.000000
vn 0.001818 0.999998 0.000000
vn 0.000000 0.000000 0.000000
vn 0.000000 0.000000 0.000000
vn 0.000000 0.000000 0.000000
vn 0.000000 0.000000 0.000000
vn -0.737154 -0.675725 0.000000
vn -0.737154 -0.675725 0.000000
vn -0.737154 -0.675725 0.000000
vn -0.737154 -0.675725 0.000000
vn 0.737154 -0.675725 0.000000
vn 0.737154 -0.675725 0.000000
vn 0.737154 -0.675725 0.000000
vn 0.737154 -0.675725 0.000000
vn -0.001818 0.999998 0.000000
vn -0.001818 0.999998 0.000000
vn -0.001818 0.999998 0.000000
vn -0.001818 0.999998 0.000000
vn 0.000000 0.000000 0.000000
vn 0.000000 0.000000 0.000000
vn 0.000000 0.000000 0.000000
vn 0.000000 0.000000 0.000000
vn -0.737154 -0.675725 0.000000
vn -0.737154 -0.675725 0.000000
vn -0.737154 -0.675725 0.000000
vn -0.737154 -0.675725 0.000000
vn 0.000000 0.000000 0.000000
vn 0.000000 0.000000 0.000000
vn 0.000000 0.000000 0.000000
vn 0.000000 0.000000 0.000000
vn 0.001818 0.999998 0.000000
vn 0.001818 0.999998 0.000000
vn 0.001818 0.999998 0.000000
vn 0.001818 0.999998 0.000000
s 1
g pCube17
usemtl lambert3SG
f 25/32/1 26/66/2 27/62/3 28/72/4
s 2
f 13/20/5 14/93/6 15/90/7 16/98/8
s 3
f 31/36/9 32/53/10 33/44/11 34/39/12
s 4
f 19/24/13 20/87/14 21/81/15 22/27/16
s off
f 2/2/17 8/11/18 6/12/19 4/4/20
f 7/13/21 1/79/22 3/73/23 5/14/24
s 1
f 27/34/3 26/67/2 29/40/25 30/41/26
s 2
f 15/22/7 14/94/6 17/28/27 18/29/28
s 3
f 33/38/11 32/54/10 35/49/29 36/47/30
s 4
f 21/26/15 20/88/14 23/86/31 24/84/32
s off
f 3/75/33 10/77/34 14/21/35 13/95/36
f 11/60/37 5/5/38 16/97/39 15/91/40
f 5/61/41 3/74/42 13/96/43 16/23/44
f 10/7/45 4/19/46 17/25/47 14/99/48
f 4/16/49 6/9/50 18/92/51 17/100/52
f 6/55/53 11/101/54 15/102/55 18/103/56
f 7/17/57 12/104/58 20/105/59 19/106/60
f 9/107/61 1/6/62 22/89/63 21/108/64
f 1/78/65 7/18/66 19/109/67 22/110/68
f 12/111/69 8/50/70 23/85/71 20/112/72
f 8/51/73 2/10/74 24/83/75 23/30/76
f 2/68/77 9/113/78 21/82/79 24/31/80
f 1/1/81 9/15/82 26/33/83 25/69/84
f 10/114/85 3/76/86 28/71/87 27/63/88
f 3/3/89 1/80/90 25/70/91 28/35/92
f 9/115/93 2/116/94 29/37/95 26/117/96
f 2/118/97 4/65/98 30/64/99 29/119/100
f 4/120/101 10/121/102 27/122/103 30/123/104
f 5/124/105 11/125/106 32/126/107 31/127/108
f 12/128/109 7/58/110 34/57/111 33/129/112
f 7/130/113 5/131/114 31/132/115 34/133/116
f 11/134/117 6/56/118 35/48/119 32/135/120
f 6/136/121 8/52/122 36/46/123 35/42/124
f 8/8/125 12/59/126 33/45/127 36/43/128
