# This file uses centimeters as units for non-parametric coordinates.

mtllib Coin.mtl
g default
v 0.000000 4.000000 -4.000000
v -4.000000 4.000000 0.000000
v 0.000000 4.000000 4.000000
v 4.000000 4.000000 0.000000
v 0.000000 8.000000 0.000000
v 0.000000 0.000000 0.000000
vt 0.111062 0.949976
vt 0.111062 0.966825
vt 0.093046 0.949976
vt 0.129079 0.949976
vt 0.111062 0.933128
vt 0.111062 0.949976
vt 0.126582 0.967018
vt 0.144598 0.983866
vt 0.126582 0.983866
vt 0.126264 0.967018
vt 0.126264 0.983866
vt 0.108248 0.967018
vn -0.577350 -0.577350 -0.577350
vn -0.577350 -0.577350 -0.577350
vn -0.577350 -0.577350 -0.577350
vn -0.577350 0.577350 -0.577350
vn -0.577350 0.577350 -0.577350
vn -0.577350 0.577350 -0.577350
vn -0.577350 0.577350 0.577350
vn -0.577350 0.577350 0.577350
vn -0.577350 0.577350 0.577350
vn 0.577350 0.577350 0.577350
vn 0.577350 0.577350 0.577350
vn 0.577350 0.577350 0.577350
vn 0.577350 0.577350 -0.577350
vn 0.577350 0.577350 -0.577350
vn 0.577350 0.577350 -0.577350
vn -0.577350 -0.577350 0.577350
vn -0.577350 -0.577350 0.577350
vn -0.577350 -0.577350 0.577350
vn 0.577350 -0.577350 -0.577350
vn 0.577350 -0.577350 -0.577350
vn 0.577350 -0.577350 -0.577350
vn 0.577350 -0.577350 0.577350
vn 0.577350 -0.577350 0.577350
vn 0.577350 -0.577350 0.577350
s off
g pPyramid1
usemtl lambert3SG
f 1/1/1 6/2/2 2/3/3
f 1/1/4 2/3/5 5/5/6
f 2/3/7 3/6/8 5/5/9
f 3/7/10 4/8/11 5/9/12
f 4/4/13 1/1/14 5/5/15
f 6/10/16 3/11/17 2/12/18
f 6/2/19 1/1/20 4/4/21
f 3/6/22 6/2/23 4/4/24
