# This file uses centimeters as units for non-parametric coordinates.

mtllib Coin.mtl
g default
v 0.000000 4.000000 -4.000000
v -4.000000 4.000000 0.000000
v 0.000000 4.000000 3.999999
v 4.000000 4.000000 0.000000
v 0.000000 8.000000 0.000000
v 0.000000 -0.000000 0.000000
vt 0.500000 0.000000
vt 0.250000 0.250000
vt 0.500000 0.500000
vt 0.750000 0.250000
vt 0.250000 0.500000
vt 0.375000 0.500000
vt 0.500000 0.500000
vt 0.625000 0.500000
vt 0.750000 0.500000
vt 0.500000 1.000000
vt 0.500000 0.250000
vn -0.577350 -0.577350 -0.577350
vn -0.577350 -0.577350 -0.577350
vn -0.577350 -0.577350 -0.577350
vn -0.577350 0.577350 -0.577350
vn -0.577350 0.577350 -0.577350
vn -0.577350 0.577350 -0.577350
vn -0.577350 0.577350 0.577350
vn -0.577350 0.577350 0.577350
vn -0.577350 0.577350 0.577350
vn 0.577350 0.577350 0.577350
vn 0.577350 0.577350 0.577350
vn 0.577350 0.577350 0.577350
vn 0.577350 0.577350 -0.577350
vn 0.577350 0.577350 -0.577350
vn 0.577350 0.577350 -0.577350
vn -0.577350 -0.577350 0.577350
vn -0.577350 -0.577350 0.577350
vn -0.577350 -0.577350 0.577350
vn 0.577350 -0.577350 -0.577350
vn 0.577350 -0.577350 -0.577350
vn 0.577350 -0.577350 -0.577350
vn 0.577350 -0.577350 0.577350
vn 0.577350 -0.577350 0.577350
vn 0.577350 -0.577350 0.577350
s off
g pPyramid1
usemtl initialShadingGroup
f 1/1/1 6/11/2 2/2/3
f 1/5/4 2/6/5 5/10/6
f 2/6/7 3/7/8 5/10/9
f 3/7/10 4/8/11 5/10/12
f 4/8/13 1/9/14 5/10/15
f 6/11/16 3/3/17 2/2/18
f 6/11/19 1/1/20 4/4/21
f 3/3/22 6/11/23 4/4/24
