# This file uses centimeters as units for non-parametric coordinates.

mtllib Dome-1.mtl
g default
v 1.408041 5.997392 -1.420356
v -0.008707 5.999594 -1.999981
v -1.420355 6.002036 -1.408043
v -1.999978 6.003285 0.008707
v -1.408041 6.002611 1.420356
v 0.008707 6.000409 1.999981
v 1.420355 5.997967 1.408043
v 1.999977 5.996718 -0.008707
v 1.848478 6.760427 0.044063
v 1.338709 6.760970 -1.275079
v 0.045477 6.764089 -1.847390
v -1.273659 6.767957 -1.337621
v -1.845967 6.770307 -0.044386
v -1.336197 6.769764 1.274755
v -0.042965 6.766645 1.847068
v 1.276171 6.762777 1.337298
v 1.030624 7.412730 0.970571
v 1.415949 7.411885 -0.040912
v 0.973188 7.412403 -1.028604
v -0.038294 7.413982 -1.413928
v -1.025985 7.415696 -0.971167
v -1.411307 7.416541 0.040316
v -0.968547 7.416023 1.028008
v 0.042935 7.414443 1.413332
v 0.019747 7.862606 0.764651
v 0.554388 7.898694 0.528002
v 0.766052 7.904944 -0.018170
v 0.530750 7.877696 -0.553927
v -0.013682 7.832911 -0.765429
v -0.548323 7.796823 -0.528781
v -0.759988 7.790573 0.017392
v -0.524685 7.817821 0.553148
v 0.003282 7.999999 -0.000422
vt 0.500000 0.500000
vt 0.125000 0.500000
vt 0.250000 0.500000
vt 0.375000 0.500000
vt 0.500000 0.500000
vt 0.625000 0.500000
vt 0.750000 0.500000
vt 0.875000 0.500000
vt 0.937500 1.000000
vt 0.000000 0.625000
vt 0.125000 0.625000
vt 0.250000 0.625000
vt 0.375000 0.625000
vt 0.500000 0.625000
vt 0.625000 0.625000
vt 0.750000 0.625000
vt 0.875000 0.625000
vt 1.000000 0.625000
vt 0.000000 0.750000
vt 0.125000 0.750000
vt 0.250000 0.750000
vt 0.375000 0.750000
vt 0.500000 0.750000
vt 0.625000 0.750000
vt 0.750000 0.750000
vt 0.875000 0.750000
vt 1.000000 0.750000
vt 0.000000 0.875000
vt 0.125000 0.875000
vt 0.250000 0.875000
vt 0.375000 0.875000
vt 0.500000 0.875000
vt 0.625000 0.875000
vt 0.750000 0.875000
vt 0.875000 0.875000
vt 1.000000 0.875000
vt 0.062500 1.000000
vt 0.187500 1.000000
vt 0.312500 1.000000
vt 0.437500 1.000000
vt 0.562500 1.000000
vt 0.687500 1.000000
vt 0.812500 1.000000
vn 0.688570 0.195387 -0.698352
vn 0.688570 0.195387 -0.698352
vn 0.688570 0.195387 -0.698352
vn 0.688570 0.195387 -0.698352
vn -0.006711 0.196189 -0.980543
vn -0.006711 0.196189 -0.980543
vn -0.006711 0.196189 -0.980543
vn -0.006711 0.196189 -0.980543
vn -0.698002 0.196990 -0.688468
vn -0.698002 0.196990 -0.688468
vn -0.698002 0.196990 -0.688468
vn -0.698002 0.196990 -0.688468
vn -0.980314 0.197323 0.006992
vn -0.980314 0.197323 0.006992
vn -0.980314 0.197323 0.006992
vn -0.980314 0.197323 0.006992
vn -0.688062 0.196991 0.698402
vn -0.688062 0.196991 0.698402
vn -0.688062 0.196991 0.698402
vn -0.688062 0.196991 0.698402
vn 0.007517 0.196187 0.980538
vn 0.007517 0.196187 0.980538
vn 0.007517 0.196187 0.980538
vn 0.007517 0.196187 0.980538
vn 0.698753 0.195388 0.688163
vn 0.698753 0.195388 0.688163
vn 0.698753 0.195388 0.688163
vn 0.698753 0.195388 0.688163
vn 0.980765 0.195057 -0.007238
vn 0.980765 0.195057 -0.007238
vn 0.980765 0.195057 -0.007238
vn 0.980765 0.195057 -0.007238
vn 0.834939 0.548528 -0.044652
vn 0.834939 0.548528 -0.044652
vn 0.834939 0.548528 -0.044652
vn 0.834939 0.548528 -0.044652
vn 0.559351 0.548879 -0.621174
vn 0.559351 0.548879 -0.621174
vn 0.559351 0.548879 -0.621174
vn 0.559351 0.548879 -0.621174
vn -0.043230 0.550497 -0.833717
vn -0.043230 0.550497 -0.833717
vn -0.043230 0.550497 -0.833717
vn -0.043230 0.550497 -0.833717
vn -0.619362 0.552431 -0.557863
vn -0.619362 0.552431 -0.557863
vn -0.619362 0.552431 -0.557863
vn -0.619362 0.552431 -0.557863
vn -0.831634 0.553551 0.044334
vn -0.831634 0.553551 0.044334
vn -0.831634 0.553551 0.044334
vn -0.831634 0.553551 0.044334
vn -0.556169 0.553196 0.620202
vn -0.556169 0.553196 0.620202
vn -0.556169 0.553196 0.620202
vn -0.556169 0.553196 0.620202
vn 0.045761 0.551580 0.832866
vn 0.045761 0.551580 0.832866
vn 0.045761 0.551580 0.832866
vn 0.045761 0.551580 0.832866
vn 0.622012 0.549646 0.557665
vn 0.622012 0.549646 0.557665
vn 0.622012 0.549646 0.557665
vn 0.622012 0.549646 0.557665
vn 0.472007 0.799966 0.370493
vn 0.472007 0.799966 0.370493
vn 0.472007 0.799965 0.370493
vn 0.472007 0.799966 0.370493
vn 0.600194 0.795117 -0.086919
vn 0.600194 0.795117 -0.086919
vn 0.600194 0.795117 -0.086919
vn 0.600194 0.795117 -0.086919
vn 0.337523 0.810066 -0.479449
vn 0.337523 0.810066 -0.479449
vn 0.337523 0.810066 -0.479449
vn 0.337523 0.810066 -0.479449
vn -0.104566 0.837175 -0.536846
vn -0.104566 0.837175 -0.536846
vn -0.104566 0.837175 -0.536846
vn -0.104566 0.837175 -0.536846
vn -0.421413 0.860485 -0.286314
vn -0.421413 0.860485 -0.286314
vn -0.421413 0.860485 -0.286314
vn -0.421413 0.860485 -0.286314
vn -0.494392 0.865705 0.078306
vn -0.494392 0.865705 0.078306
vn -0.494392 0.865705 0.078306
vn -0.494392 0.865705 0.078306
vn -0.324527 0.849679 0.415606
vn -0.324527 0.849679 0.415606
vn -0.324527 0.849679 0.415606
vn -0.324527 0.849679 0.415606
vn 0.062290 0.822184 0.565804
vn 0.062290 0.822184 0.565804
vn 0.062290 0.822184 0.565804
vn 0.062290 0.822184 0.565804
vn 0.011688 0.984232 0.176496
vn 0.011688 0.984232 0.176496
vn 0.011688 0.984232 0.176496
vn 0.124808 0.990383 0.059702
vn 0.124808 0.990383 0.059702
vn 0.124808 0.990383 0.059702
vn 0.120636 0.987319 -0.103196
vn 0.120636 0.987318 -0.103196
vn 0.120636 0.987319 -0.103196
vn 0.002553 0.976954 -0.213436
vn 0.002553 0.976954 -0.213436
vn 0.002553 0.976954 -0.213436
vn -0.156983 0.965575 -0.207416
vn -0.156983 0.965575 -0.207416
vn -0.156983 0.965575 -0.207416
vn -0.265475 0.959728 -0.091902
vn -0.265475 0.959728 -0.091902
vn -0.265475 0.959728 -0.091902
vn -0.262578 0.962626 0.066360
vn -0.262578 0.962626 0.066360
vn -0.262578 0.962626 0.066360
vn -0.149118 0.972686 0.177890
vn -0.149118 0.972686 0.177890
vn -0.149118 0.972686 0.177890
vn -0.001641 -0.999999 0.000211
vn -0.001641 -0.999999 0.000211
vn -0.001641 -0.999999 0.000211
vn -0.001641 -0.999999 0.000211
vn -0.001641 -0.999999 0.000211
vn -0.001641 -0.999999 0.000211
vn -0.001641 -0.999999 0.000211
vn -0.001641 -0.999999 0.000211
vn -0.001641 -0.999999 0.000211
vn -0.001641 -0.999999 0.000211
vn -0.001641 -0.999999 0.000211
vn -0.001641 -0.999999 0.000211
s off
g pSphere2 group1
usemtl initialShadingGroup
f 1/1/1 2/2/2 10/11/3 9/10/4
f 2/2/5 3/3/6 11/12/7 10/11/8
f 3/3/9 4/4/10 12/13/11 11/12/12
f 4/4/13 5/5/14 13/14/15 12/13/16
f 5/5/17 6/6/18 14/15/19 13/14/20
f 6/6/21 7/7/22 15/16/23 14/15/24
f 7/7/25 8/8/26 16/17/27 15/16/28
f 8/8/29 1/1/30 9/18/31 16/17/32
f 9/10/33 10/11/34 18/20/35 17/19/36
f 10/11/37 11/12/38 19/21/39 18/20/40
f 11/12/41 12/13/42 20/22/43 19/21/44
f 12/13/45 13/14/46 21/23/47 20/22/48
f 13/14/49 14/15/50 22/24/51 21/23/52
f 14/15/53 15/16/54 23/25/55 22/24/56
f 15/16/57 16/17/58 24/26/59 23/25/60
f 16/17/61 9/18/62 17/27/63 24/26/64
f 17/19/65 18/20/66 26/29/67 25/28/68
f 18/20/69 19/21/70 27/30/71 26/29/72
f 19/21/73 20/22/74 28/31/75 27/30/76
f 20/22/77 21/23/78 29/32/79 28/31/80
f 21/23/81 22/24/82 30/33/83 29/32/84
f 22/24/85 23/25/86 31/34/87 30/33/88
f 23/25/89 24/26/90 32/35/91 31/34/92
f 24/26/93 17/27/94 25/36/95 32/35/96
f 25/28/97 26/29/98 33/37/99
f 26/29/100 27/30/101 33/38/102
f 27/30/103 28/31/104 33/39/105
f 28/31/106 29/32/107 33/40/108
f 29/32/109 30/33/110 33/41/111
f 30/33/112 31/34/113 33/42/114
f 31/34/115 32/35/116 33/43/117
f 32/35/118 25/36/119 33/9/120
f 3/3/121 2/2/122 7/7/123 6/6/124
f 4/4/125 3/3/126 6/6/127 5/5/128
f 2/2/129 1/1/130 8/8/131 7/7/132
g default
v 2.828426 0.000001 -2.828426
v 0.000000 0.000001 -4.000000
v -2.828426 0.000001 -2.828426
v -4.000000 0.000001 0.000000
v -2.828426 0.000001 2.828426
v 0.000000 0.000001 4.000000
v 2.828426 0.000001 2.828427
v 4.000000 0.000001 0.000000
v 3.386974 1.530537 -1.478260
v 1.349667 1.530584 -3.440241
v -1.478261 1.530719 -3.386976
v -3.440240 1.530864 -1.349665
v -3.386976 1.530934 1.478259
v -1.349665 1.530888 3.440240
v 1.478260 1.530753 3.386974
v 3.440239 1.530607 1.349665
v 2.499470 2.788622 -1.323280
v 0.831444 2.786148 -2.703129
v -1.323627 2.808442 -2.499522
v -2.703337 2.842443 -0.831728
v -2.499470 2.868235 1.323280
v -0.831445 2.870709 2.703129
v 1.323627 2.848416 2.499522
v 2.703337 2.814415 0.831728
v 0.609467 3.695520 -1.404170
v -0.561939 3.695520 -1.423857
v -1.404170 3.695520 -0.609468
v -1.423857 3.695520 0.561939
v -0.609468 3.695520 1.404170
v 0.561939 3.695520 1.423857
v 1.404171 3.695520 0.609468
v 1.423857 3.695520 -0.561940
v 0.609962 6.000001 -1.405315
v -0.562397 6.000001 -1.425017
v 0.000000 6.000001 0.000000
v -1.405314 6.000001 -0.609964
v -1.425016 6.000001 0.562396
v -0.609966 6.000001 1.405314
v 0.562397 6.000001 1.425016
v 1.405313 6.000001 0.609965
v 1.425014 6.000001 -0.562396
vt 0.000000 0.500000
vt 0.125000 0.500000
vt 0.250000 0.500000
vt 0.375000 0.500000
vt 0.500000 0.500000
vt 0.625000 0.500000
vt 0.750000 0.500000
vt 0.875000 0.500000
vt 1.000000 0.500000
vt 0.000000 0.625000
vt 0.125000 0.625000
vt 0.250000 0.625000
vt 0.375000 0.625000
vt 0.500000 0.625000
vt 0.625000 0.625000
vt 0.750000 0.625000
vt 0.875000 0.625000
vt 1.000000 0.625000
vt 0.000000 0.750000
vt 0.125000 0.750000
vt 0.250000 0.750000
vt 0.375000 0.750000
vt 0.500000 0.750000
vt 0.625000 0.750000
vt 0.750000 0.750000
vt 0.875000 0.750000
vt 1.000000 0.750000
vt 0.000000 0.875000
vt 0.125000 0.875000
vt 0.250000 0.875000
vt 0.375000 0.875000
vt 0.500000 0.875000
vt 0.625000 0.875000
vt 0.750000 0.875000
vt 0.875000 0.875000
vt 1.000000 0.875000
vt 0.062500 1.000000
vt 0.187500 1.000000
vt 0.312500 1.000000
vt 0.437500 1.000000
vt 0.562500 1.000000
vt 0.687500 1.000000
vt 0.812500 1.000000
vt 0.937500 1.000000
vt 0.000000 0.875000
vt 0.125000 0.875000
vt 0.250000 0.875000
vt 0.375000 0.875000
vt 0.500000 0.875000
vt 0.625000 0.875000
vt 0.750000 0.875000
vt 0.875000 0.875000
vt 1.000000 0.875000
vn 0.317136 0.559670 -0.765633
vn 0.549506 0.140846 -0.823532
vn 0.474769 0.307851 -0.824513
vn 0.655076 -0.328872 -0.680235
vn -0.317139 0.559660 -0.765639
vn -0.193760 0.140824 -0.970889
vn -0.247299 0.307814 -0.918746
vn -0.017800 -0.328839 -0.944218
vn -0.765661 0.559625 -0.317147
vn -0.823534 0.140819 -0.549511
vn -0.824526 0.307773 -0.474797
vn -0.680259 -0.328809 -0.655082
vn -0.765683 0.559590 0.317157
vn -0.970886 0.140829 0.193771
vn -0.918766 0.307753 0.247300
vn -0.944230 -0.328806 0.017793
vn -0.317161 0.559571 0.765695
vn -0.549493 0.140852 0.823540
vn -0.474787 0.307766 0.824535
vn -0.655096 -0.328821 0.680240
vn 0.317158 0.559583 0.765688
vn 0.193787 0.140874 0.970877
vn 0.247317 0.307805 0.918744
vn 0.017769 -0.328856 0.944213
vn 0.765667 0.559617 0.317149
vn 0.823539 0.140882 0.549487
vn 0.824522 0.307846 0.474758
vn 0.680217 -0.328882 0.655089
vn 0.765644 0.559653 -0.317140
vn 0.970879 0.140870 -0.193776
vn 0.918724 0.307865 -0.247316
vn 0.944201 -0.328890 -0.017776
vn 0.600549 0.500472 -0.623593
vn 0.554331 0.547791 -0.626612
vn 0.579344 0.522791 -0.625340
vn 0.517871 0.581884 -0.627072
vn -0.016271 0.501207 -0.865174
vn -0.047791 0.544180 -0.837606
vn -0.031154 0.521712 -0.852553
vn -0.071073 0.574805 -0.815198
vn -0.626037 0.494532 -0.602923
vn -0.629220 0.535191 -0.563608
vn -0.627828 0.514408 -0.584137
vn -0.630283 0.564568 -0.532922
vn -0.874463 0.484814 0.016458
vn -0.848932 0.526354 0.047599
vn -0.862185 0.505589 0.031887
vn -0.827227 0.557289 0.071587
vn -0.609377 0.477749 0.632785
vn -0.566110 0.522519 0.637568
vn -0.588084 0.500323 0.635480
vn -0.529929 0.556850 0.639604
vn 0.016574 0.477029 0.878731
vn 0.053595 0.525668 0.849000
vn 0.034828 0.501275 0.864587
vn 0.083485 0.563392 0.821961
vn 0.630700 0.483063 0.607345
vn 0.635468 0.534275 0.557432
vn 0.633395 0.507975 0.583757
vn 0.636935 0.573462 0.515223
vn 0.870007 0.492767 -0.016399
vn 0.837608 0.543574 -0.054226
vn 0.855351 0.516921 -0.034161
vn 0.809407 0.581278 -0.083528
vn 0.396089 0.782629 -0.480213
vn 0.311040 0.802722 -0.508814
vn 0.226992 0.815618 -0.532205
vn 0.009619 0.819935 -0.572376
vn -0.049880 0.787584 -0.614185
vn -0.130841 0.808349 -0.573979
vn -0.207122 0.821691 -0.530966
vn -0.391239 0.826571 -0.404614
vn -0.456475 0.797797 -0.393891
vn -0.484672 0.818490 -0.308492
vn -0.507249 0.831507 -0.226485
vn -0.547756 0.836587 -0.009205
vn -0.588355 0.807293 0.045998
vn -0.547902 0.827186 0.124765
vn -0.507421 0.839313 0.195133
vn -0.385436 0.844120 0.372694
vn -0.374063 0.810505 0.450731
vn -0.291034 0.829376 0.476901
vn -0.215404 0.840613 0.496961
vn -0.008990 0.844852 0.534925
vn 0.063987 0.805544 0.589071
vn 0.140623 0.823792 0.549174
vn 0.208021 0.834645 0.509995
vn 0.378933 0.838352 0.391888
vn 0.474947 0.795316 0.376693
vn 0.501557 0.813670 0.293909
vn 0.522417 0.824826 0.216203
vn 0.560167 0.828326 0.009414
vn 0.614746 0.785826 -0.067561
vn 0.575013 0.804930 -0.146451
vn 0.533280 0.816915 -0.219687
vn 0.410786 0.820659 -0.397207
vn 0.000000 1.000000 0.000000
vn 0.000000 1.000000 0.000000
vn 0.000000 1.000000 0.000000
vn 0.000000 1.000000 0.000000
vn 0.000000 1.000000 0.000000
vn 0.000000 1.000000 0.000000
vn 0.000000 1.000000 0.000000
vn 0.000000 1.000000 0.000000
vn 0.000000 1.000000 0.000000
vn 0.000000 1.000000 0.000000
vn 0.000000 1.000000 0.000000
vn 0.000000 1.000000 0.000000
vn 0.000000 1.000000 0.000000
vn 0.000000 1.000000 0.000000
vn 0.000000 1.000000 0.000000
vn 0.000000 1.000000 0.000000
vn 0.000000 1.000000 0.000000
vn 0.000000 1.000000 0.000000
vn 0.000000 1.000000 0.000000
vn 0.000000 1.000000 0.000000
vn 0.000000 1.000000 0.000000
vn 0.000000 1.000000 0.000000
vn 0.000000 1.000000 0.000000
vn 0.000000 1.000000 0.000000
vn 0.000000 -1.000000 0.000000
vn 0.000000 -1.000000 0.000000
vn 0.000000 -1.000000 0.000000
vn 0.000000 -1.000000 0.000000
vn 0.000000 -1.000000 0.000000
vn 0.000000 -1.000000 0.000000
vn 0.000000 -1.000000 0.000000
vn 0.000000 -1.000000 0.000000
vn 0.016803 -0.000500 -0.999859
vn 0.016803 -0.000500 -0.999859
vn 0.016803 -0.000500 -0.999859
vn 0.016803 -0.000500 -0.999859
vn -0.695124 -0.000500 -0.718890
vn -0.695124 -0.000500 -0.718890
vn -0.695124 -0.000500 -0.718890
vn -0.695124 -0.000500 -0.718890
vn -0.999859 -0.000500 -0.016803
vn -0.999859 -0.000500 -0.016803
vn -0.999859 -0.000500 -0.016803
vn -0.999859 -0.000500 -0.016803
vn -0.718890 -0.000500 0.695124
vn -0.718890 -0.000500 0.695124
vn -0.718890 -0.000500 0.695124
vn -0.718890 -0.000500 0.695124
vn -0.016803 -0.000500 0.999859
vn -0.016803 -0.000500 0.999859
vn -0.016803 -0.000500 0.999859
vn -0.016803 -0.000500 0.999859
vn 0.695125 -0.000500 0.718889
vn 0.695125 -0.000500 0.718889
vn 0.695124 -0.000500 0.718889
vn 0.695125 -0.000500 0.718889
vn 0.999859 -0.000500 0.016803
vn 0.999859 -0.000500 0.016803
vn 0.999859 -0.000500 0.016803
vn 0.999859 -0.000500 0.016803
vn 0.718889 -0.000499 -0.695125
vn 0.718889 -0.000499 -0.695125
vn 0.718889 -0.000499 -0.695125
vn 0.718889 -0.000499 -0.695125
s 1
g group1 pSphere1
usemtl initialShadingGroup
f 34/44/133 35/45/134 42/53/135
f 42/53/135 35/45/134 43/54/136
s 2
f 35/45/137 36/46/138 43/54/139
f 43/54/139 36/46/138 44/55/140
s 3
f 36/46/141 37/47/142 44/55/143
f 44/55/143 37/47/142 45/56/144
s 4
f 37/47/145 38/48/146 45/56/147
f 45/56/147 38/48/146 46/57/148
s 5
f 38/48/149 39/49/150 46/57/151
f 46/57/151 39/49/150 47/58/152
s 6
f 39/49/153 40/50/154 47/58/155
f 47/58/155 40/50/154 48/59/156
s 7
f 40/50/157 41/51/158 48/59/159
f 48/59/159 41/51/158 49/60/160
s 8
f 41/51/161 34/52/162 49/60/163
f 49/60/163 34/52/162 42/61/164
s 9
f 42/53/165 43/54/166 50/62/167
f 50/62/167 43/54/166 51/63/168
s 10
f 43/54/169 44/55/170 51/63/171
f 51/63/171 44/55/170 52/64/172
s 11
f 44/55/173 45/56/174 52/64/175
f 52/64/175 45/56/174 53/65/176
s 12
f 45/56/177 46/57/178 53/65/179
f 53/65/179 46/57/178 54/66/180
s 13
f 46/57/181 47/58/182 54/66/183
f 54/66/183 47/58/182 55/67/184
s 14
f 47/58/185 48/59/186 55/67/187
f 55/67/187 48/59/186 56/68/188
s 15
f 48/59/189 49/60/190 56/68/191
f 56/68/191 49/60/190 57/69/192
s 16
f 49/60/193 42/61/194 57/69/195
f 57/69/195 42/61/194 50/70/196
s 17
f 50/62/197 51/63/198 58/71/199
f 58/71/199 51/63/198 59/72/200
s 18
f 51/63/201 52/64/202 59/72/203
f 59/72/203 52/64/202 60/73/204
s 19
f 52/64/205 53/65/206 60/73/207
f 60/73/207 53/65/206 61/74/208
s 20
f 53/65/209 54/66/210 61/74/211
f 61/74/211 54/66/210 62/75/212
s 21
f 54/66/213 55/67/214 62/75/215
f 62/75/215 55/67/214 63/76/216
s 22
f 55/67/217 56/68/218 63/76/219
f 63/76/219 56/68/218 64/77/220
s 23
f 56/68/221 57/69/222 64/77/223
f 64/77/223 57/69/222 65/78/224
s 24
f 57/69/225 50/70/226 65/78/227
f 65/78/227 50/70/226 58/79/228
s off
f 66/88/229 67/89/230 68/80/231
f 67/89/232 69/90/233 68/81/234
f 69/90/235 70/91/236 68/82/237
f 70/91/238 71/92/239 68/83/240
f 71/92/241 72/93/242 68/84/243
f 72/93/244 73/94/245 68/85/246
f 73/94/247 74/95/248 68/86/249
f 74/95/250 66/96/251 68/87/252
s 25
f 35/45/253 34/52/254 36/46/255
f 34/52/254 41/51/256 36/46/255
f 41/51/256 40/50/257 36/46/255
f 40/50/257 39/49/258 36/46/255
f 39/49/258 38/48/259 36/46/255
f 38/48/259 37/47/260 36/46/255
s off
f 58/71/261 59/72/262 67/89/263 66/88/264
f 59/72/265 60/73/266 69/90/267 67/89/268
f 60/73/269 61/74/270 70/91/271 69/90/272
f 61/74/273 62/75/274 71/92/275 70/91/276
f 62/75/277 63/76/278 72/93/279 71/92/280
f 63/76/281 64/77/282 73/94/283 72/93/284
f 64/77/285 65/78/286 74/95/287 73/94/288
f 65/78/289 58/79/290 66/96/291 74/95/292
