# This file uses centimeters as units for non-parametric coordinates.

mtllib Ring-big.mtl
g default
v 4.949745 1.000000 -4.949743
v 0.000000 1.000000 -6.999999
v -4.949745 1.000000 -4.949743
v -7.000000 1.000000 0.000002
v -4.949745 1.000000 4.949749
v 0.000000 1.000000 7.000002
v 4.949753 1.000000 4.949749
v 7.000000 1.000000 0.000002
v 4.949745 0.000000 -4.949743
v 0.000000 0.000000 -6.999999
v -4.949745 0.000000 -4.949743
v -7.000000 0.000000 0.000002
v -4.949745 0.000000 4.949749
v 0.000000 0.000000 7.000002
v 4.949753 0.000000 4.949749
v 7.000000 0.000000 0.000002
v 5.603027 1.000000 -5.603025
v 0.000000 1.000000 -7.923880
v 5.603027 0.000000 -5.603025
v 0.000000 0.000000 -7.923880
v -5.603027 1.000000 -5.603025
v -5.603027 0.000000 -5.603025
v -7.923878 1.000000 0.000002
v -7.923878 0.000000 0.000002
v -5.603027 1.000000 5.603029
v -5.603027 0.000000 5.603029
v 0.000000 1.000000 7.923880
v 0.000000 0.000000 7.923880
v 5.603027 1.000000 5.603029
v 5.603027 0.000000 5.603029
v 7.923882 1.000000 0.000002
v 7.923882 0.000000 0.000002
vt 0.093767 0.965998
vt 0.098095 0.965998
vt 0.102423 0.965998
vt 0.106751 0.965998
vt 0.111079 0.965998
vt 0.115407 0.965998
vt 0.119735 0.965998
vt 0.124063 0.965998
vt 0.128391 0.965998
vt 0.093767 0.948841
vt 0.098095 0.948841
vt 0.102423 0.948841
vt 0.106751 0.948841
vt 0.111079 0.948841
vt 0.115407 0.948841
vt 0.119735 0.948841
vt 0.124063 0.948841
vt 0.128391 0.948841
vt 0.098095 0.965998
vt 0.093767 0.965998
vt 0.093767 0.948841
vt 0.098095 0.948841
vt 0.102423 0.965998
vt 0.102423 0.948841
vt 0.106751 0.965998
vt 0.106751 0.948841
vt 0.111079 0.965998
vt 0.111079 0.948841
vt 0.115407 0.965998
vt 0.115407 0.948841
vt 0.119735 0.965998
vt 0.119735 0.948841
vt 0.124063 0.965998
vt 0.124063 0.948841
vt 0.128391 0.965998
vt 0.128391 0.948841
vt 0.098095 0.965998
vt 0.093767 0.965998
vt 0.093767 0.948841
vt 0.098095 0.948841
vt 0.102423 0.965998
vt 0.102423 0.948841
vt 0.106751 0.965998
vt 0.106751 0.948841
vt 0.111079 0.965998
vt 0.111079 0.948841
vt 0.115407 0.965998
vt 0.115407 0.948841
vt 0.119735 0.965998
vt 0.119735 0.948841
vt 0.124063 0.965998
vt 0.124063 0.948841
vt 0.128391 0.965998
vt 0.128391 0.948841
vt 0.124063 0.948841
vt 0.124063 0.948841
vt 0.124063 0.948841
vt 0.093767 0.948841
vt 0.128391 0.948841
vt 0.124063 0.965998
vt 0.124063 0.965998
vt 0.124063 0.965998
vt 0.093767 0.965998
vt 0.128391 0.965998
vt 0.119735 0.948841
vt 0.119735 0.948841
vt 0.119735 0.948841
vt 0.124063 0.948841
vt 0.124063 0.948841
vt 0.119735 0.965998
vt 0.119735 0.965998
vt 0.119735 0.965998
vt 0.124063 0.965998
vt 0.124063 0.965998
vt 0.115407 0.948841
vt 0.115407 0.948841
vt 0.115407 0.948841
vt 0.119735 0.948841
vt 0.119735 0.948841
vt 0.115407 0.965998
vt 0.115407 0.965998
vt 0.115407 0.965998
vt 0.119735 0.965998
vt 0.119735 0.965998
vt 0.111079 0.948841
vt 0.111079 0.948841
vt 0.111079 0.948841
vt 0.115407 0.948841
vt 0.115407 0.948841
vt 0.111079 0.965998
vt 0.111079 0.965998
vt 0.111079 0.965998
vt 0.115407 0.965998
vt 0.115407 0.965998
vt 0.106751 0.948841
vt 0.106751 0.948841
vt 0.106751 0.948841
vt 0.111079 0.948841
vt 0.111079 0.948841
vt 0.106751 0.965998
vt 0.106751 0.965998
vt 0.106751 0.965998
vt 0.111079 0.965998
vt 0.111079 0.965998
vt 0.102423 0.948841
vt 0.102423 0.948841
vt 0.102423 0.948841
vt 0.106751 0.948841
vt 0.106751 0.948841
vt 0.102423 0.965998
vt 0.102423 0.965998
vt 0.102423 0.965998
vt 0.106751 0.965998
vt 0.106751 0.965998
vt 0.098095 0.948841
vt 0.098095 0.948841
vt 0.098095 0.948841
vt 0.102423 0.948841
vt 0.102423 0.948841
vt 0.098095 0.965998
vt 0.098095 0.965998
vt 0.098095 0.965998
vt 0.102423 0.965998
vt 0.102423 0.965998
vt 0.098095 0.948841
vt 0.098095 0.948841
vt 0.098095 0.965998
vt 0.098095 0.965998
vn 0.382684 0.000000 -0.923879
vn 0.382684 0.000000 -0.923879
vn 0.382684 0.000000 -0.923879
vn 0.382684 0.000000 -0.923879
vn -0.382684 0.000000 -0.923879
vn -0.382684 0.000000 -0.923879
vn -0.382684 0.000000 -0.923879
vn -0.382684 0.000000 -0.923879
vn -0.923880 0.000000 -0.382684
vn -0.923880 0.000000 -0.382684
vn -0.923880 0.000000 -0.382684
vn -0.923880 0.000000 -0.382684
vn -0.923880 0.000000 0.382684
vn -0.923880 0.000000 0.382684
vn -0.923880 0.000000 0.382684
vn -0.923880 0.000000 0.382684
vn -0.382684 0.000000 0.923880
vn -0.382684 0.000000 0.923880
vn -0.382684 0.000000 0.923880
vn -0.382684 0.000000 0.923880
vn 0.382684 0.000000 0.923880
vn 0.382684 0.000000 0.923880
vn 0.382684 0.000000 0.923880
vn 0.382684 0.000000 0.923880
vn 0.923879 0.000000 0.382684
vn 0.923879 0.000000 0.382684
vn 0.923879 0.000000 0.382684
vn 0.923879 0.000000 0.382684
vn 0.923879 0.000000 -0.382684
vn 0.923879 0.000000 -0.382684
vn 0.923879 0.000000 -0.382684
vn 0.923879 0.000000 -0.382684
vn -0.382684 0.000000 0.923879
vn -0.382684 0.000000 0.923879
vn -0.382684 0.000000 0.923879
vn -0.382684 0.000000 0.923879
vn 0.382684 0.000000 0.923879
vn 0.382684 0.000000 0.923879
vn 0.382684 0.000000 0.923879
vn 0.382684 0.000000 0.923879
vn 0.923879 0.000000 0.382684
vn 0.923879 0.000000 0.382684
vn 0.923879 0.000000 0.382684
vn 0.923879 0.000000 0.382684
vn 0.923879 0.000000 -0.382684
vn 0.923879 0.000000 -0.382684
vn 0.923879 0.000000 -0.382684
vn 0.923879 0.000000 -0.382684
vn 0.382684 0.000000 -0.923879
vn 0.382684 0.000000 -0.923879
vn 0.382684 0.000000 -0.923879
vn 0.382684 0.000000 -0.923879
vn -0.382683 0.000000 -0.923880
vn -0.382683 0.000000 -0.923880
vn -0.382683 0.000000 -0.923880
vn -0.382683 0.000000 -0.923880
vn -0.923880 0.000000 -0.382683
vn -0.923880 0.000000 -0.382683
vn -0.923880 0.000000 -0.382683
vn -0.923880 0.000000 -0.382683
vn -0.923879 0.000000 0.382684
vn -0.923879 0.000000 0.382684
vn -0.923879 0.000000 0.382684
vn -0.923879 0.000000 0.382684
vn 0.000000 1.000000 0.000000
vn 0.000000 1.000000 0.000000
vn 0.000000 1.000000 0.000000
vn 0.000000 1.000000 0.000000
vn 0.000000 -1.000000 0.000000
vn 0.000000 -1.000000 0.000000
vn 0.000000 -1.000000 0.000000
vn 0.000000 -1.000000 0.000000
vn 0.000000 1.000000 0.000000
vn 0.000000 1.000000 0.000000
vn 0.000000 1.000000 0.000000
vn 0.000000 1.000000 0.000000
vn 0.000000 -1.000000 0.000000
vn 0.000000 -1.000000 0.000000
vn 0.000000 -1.000000 0.000000
vn 0.000000 -1.000000 0.000000
vn 0.000000 1.000000 0.000000
vn 0.000000 1.000000 0.000000
vn 0.000000 1.000000 0.000000
vn 0.000000 1.000000 0.000000
vn 0.000000 -1.000000 0.000000
vn 0.000000 -1.000000 0.000000
vn 0.000000 -1.000000 0.000000
vn 0.000000 -1.000000 0.000000
vn 0.000000 1.000000 0.000000
vn 0.000000 1.000000 0.000000
vn 0.000000 1.000000 0.000000
vn 0.000000 1.000000 0.000000
vn 0.000000 -1.000000 0.000000
vn 0.000000 -1.000000 0.000000
vn 0.000000 -1.000000 0.000000
vn 0.000000 -1.000000 0.000000
vn 0.000000 1.000000 0.000000
vn 0.000000 1.000000 0.000000
vn 0.000000 1.000000 0.000000
vn 0.000000 1.000000 0.000000
vn 0.000000 -1.000000 0.000000
vn 0.000000 -1.000000 0.000000
vn 0.000000 -1.000000 0.000000
vn 0.000000 -1.000000 0.000000
vn 0.000000 1.000000 0.000000
vn 0.000000 1.000000 0.000000
vn 0.000000 1.000000 0.000000
vn 0.000000 1.000000 0.000000
vn 0.000000 -1.000000 0.000000
vn 0.000000 -1.000000 0.000000
vn 0.000000 -1.000000 0.000000
vn 0.000000 -1.000000 0.000000
vn 0.000000 1.000000 0.000000
vn 0.000000 1.000000 0.000000
vn 0.000000 1.000000 0.000000
vn 0.000000 1.000000 0.000000
vn 0.000000 -1.000000 0.000000
vn 0.000000 -1.000000 0.000000
vn 0.000000 -1.000000 0.000000
vn 0.000000 -1.000000 0.000000
vn 0.000000 1.000000 0.000000
vn 0.000000 1.000000 0.000000
vn 0.000000 1.000000 0.000000
vn 0.000000 1.000000 0.000000
vn 0.000000 -1.000000 0.000000
vn 0.000000 -1.000000 0.000000
vn 0.000000 -1.000000 0.000000
vn 0.000000 -1.000000 0.000000
s off
g pTorus2
usemtl lambert3SG
f 18/120/1 17/63/2 19/39/3 20/116/4
f 21/110/5 18/37/6 20/117/7 22/106/8
f 23/100/9 21/41/10 22/107/11 24/96/12
f 25/90/13 23/43/14 24/97/15 26/86/16
f 27/80/17 25/45/18 26/87/19 28/76/20
f 29/70/21 27/47/22 28/77/23 30/66/24
f 31/60/25 29/49/26 30/67/27 32/56/28
f 17/64/29 31/51/30 32/57/31 19/54/32
f 2/19/33 10/125/34 9/21/35 1/20/36
f 3/23/37 11/118/38 10/22/39 2/127/40
f 4/25/41 12/108/42 11/24/43 3/123/44
f 5/27/45 13/98/46 12/26/47 4/113/48
f 6/29/49 14/88/50 13/28/51 5/103/52
f 7/31/53 15/78/54 14/30/55 6/93/56
f 8/33/57 16/68/58 15/32/59 7/83/60
f 1/35/61 9/36/62 16/34/63 8/73/64
f 2/2/65 1/1/66 17/38/67 18/121/68
f 9/10/69 10/126/70 20/115/71 19/58/72
f 3/3/73 2/128/74 18/122/75 21/111/76
f 10/11/77 11/119/78 22/105/79 20/40/80
f 4/4/81 3/124/82 21/112/83 23/101/84
f 11/12/85 12/109/86 24/95/87 22/42/88
f 5/5/89 4/114/90 23/102/91 25/91/92
f 12/13/93 13/99/94 26/85/95 24/44/96
f 6/6/97 5/104/98 25/92/99 27/81/100
f 13/14/101 14/89/102 28/75/103 26/46/104
f 7/7/105 6/94/106 27/82/107 29/71/108
f 14/15/109 15/79/110 30/65/111 28/48/112
f 8/8/113 7/84/114 29/72/115 31/61/116
f 15/16/117 16/69/118 32/55/119 30/50/120
f 1/9/121 8/74/122 31/62/123 17/53/124
f 16/17/125 9/18/126 19/59/127 32/52/128
