# This file uses centimeters as units for non-parametric coordinates.

mtllib Tower-1x2.mtl
g default
v -15.000000 8.000000 45.000000
v -7.000000 8.000000 45.000000
v -15.000000 16.000000 45.000000
v -7.000000 16.000000 45.000000
v -15.000000 16.000000 37.000000
v -7.000000 16.000000 37.000000
v -15.000000 8.000000 37.000000
v -7.000000 8.000000 37.000000
v -8.000000 8.000000 45.000000
v -8.000000 16.000000 45.000000
v -8.000000 16.000000 37.000000
v -8.000000 8.000000 37.000000
v -14.000000 8.000000 45.000000
v -14.000000 16.000000 45.000000
v -14.000000 16.000000 37.000000
v -14.000000 8.000000 37.000000
v -15.000000 16.000000 38.000000
v -7.000000 16.000000 38.000000
v -15.000000 8.000000 38.000000
v -7.000000 8.000000 38.000000
v -8.000000 16.000000 38.000000
v -8.000000 8.000000 38.000000
v -14.000000 16.000000 38.000000
v -14.000000 8.000000 38.000000
v -15.000000 16.000000 44.000000
v -7.000000 16.000000 44.000000
v -8.000000 16.000000 44.000000
v -14.000000 16.000000 44.000000
v -15.000000 8.000000 44.000000
v -7.000000 8.000000 44.000000
v -8.000000 8.000000 44.000000
v -14.000000 8.000000 44.000000
v -15.000000 15.000000 45.000000
v -7.000000 15.000000 45.000000
v -15.000000 15.000000 37.000000
v -7.000000 15.000000 37.000000
v -8.000000 15.000000 45.000000
v -8.000000 15.000000 37.000000
v -14.000000 15.000000 45.000000
v -14.000000 15.000000 37.000000
v -7.000000 15.000000 38.000000
v -15.000000 15.000000 38.000000
v -7.000000 15.000000 44.000000
v -15.000000 15.000000 44.000000
v -15.000000 9.000000 45.000000
v -7.000000 9.000000 45.000000
v -8.000000 9.000000 45.000000
v -14.000000 9.000000 45.000000
v -7.000000 9.000000 38.000000
v -15.000000 9.000000 38.000000
v -7.000000 9.000000 44.000000
v -15.000000 9.000000 44.000000
v -15.000000 9.000000 37.000000
v -7.000000 9.000000 37.000000
v -8.000000 9.000000 37.000000
v -14.000000 9.000000 37.000000
v -15.000000 -0.000001 37.000000
v -14.000000 -0.000001 37.000000
v -14.000000 -0.000001 38.000000
v -15.000000 -0.000001 38.000000
v -8.000000 -0.000001 44.000000
v -8.000000 -0.000001 45.000000
v -7.000000 -0.000001 44.000000
v -7.000000 -0.000001 45.000000
v -8.000000 -0.000001 38.000000
v -7.000000 -0.000001 38.000000
v -8.000000 -0.000001 37.000000
v -7.000000 -0.000001 37.000000
v -14.000000 -0.000001 44.000000
v -15.000000 -0.000001 44.000000
v -14.000000 -0.000001 45.000000
v -15.000000 -0.000001 45.000000
v -11.000000 9.000000 45.000000
v -11.000000 16.000000 45.000000
v -11.000000 16.000000 37.000000
v -11.000000 9.000000 37.000000
v -11.000000 16.000000 38.000000
v -11.000000 9.000000 38.000000
v -11.000000 9.000000 44.000000
v -11.000000 16.000000 44.000000
v -11.000000 15.000000 45.000000
v -11.000000 15.000000 37.000000
v -11.000000 10.000000 37.000000
v -11.000000 10.000000 45.000000
v -15.000000 9.000000 41.000000
v -7.000000 9.000000 41.000000
v -8.000000 9.000000 41.000000
v -14.000000 9.000000 41.000000
v -15.000000 16.000000 41.000000
v -7.000000 16.000000 41.000000
v -8.000000 16.000000 41.000000
v -14.000000 16.000000 41.000000
v -15.000000 15.000000 41.000000
v -7.000000 15.000000 41.000000
v -15.000000 10.000000 41.000000
v -7.000000 10.000000 41.000000
v -11.000000 16.000000 41.000000
v -11.000000 10.000000 41.000000
vt 0.375000 0.000000
vt 0.625000 0.000000
vt 0.375000 0.250000
vt 0.625000 0.250000
vt 0.375000 0.500000
vt 0.625000 0.500000
vt 0.375000 0.750000
vt 0.625000 0.750000
vt 0.375000 1.000000
vt 0.625000 1.000000
vt 0.875000 0.000000
vt 0.875000 0.250000
vt 0.125000 0.000000
vt 0.125000 0.250000
vt 0.583805 0.000000
vt 0.583805 1.000000
vt 0.583805 0.250000
vt 0.583805 0.500000
vt 0.583805 0.750000
vt 0.417244 0.000000
vt 0.417244 1.000000
vt 0.417244 0.250000
vt 0.417244 0.500000
vt 0.417244 0.750000
vt 0.166719 0.250000
vt 0.375000 0.458281
vt 0.625000 0.458281
vt 0.833281 0.250000
vt 0.166719 0.000000
vt 0.375000 0.791719
vt 0.625000 0.791719
vt 0.833281 0.000000
vt 0.583805 0.458281
vt 0.583805 0.791719
vt 0.417244 0.458281
vt 0.417244 0.791719
vt 0.332178 0.250000
vt 0.375000 0.292822
vt 0.625000 0.292822
vt 0.667822 0.250000
vt 0.583805 0.292822
vt 0.417244 0.292822
vt 0.332178 0.000000
vt 0.375000 0.957178
vt 0.625000 0.957178
vt 0.667822 0.000000
vt 0.583805 0.957178
vt 0.417244 0.957178
vt 0.375000 0.201060
vt 0.625000 0.201060
vt 0.125000 0.201060
vt 0.375000 0.548940
vt 0.625000 0.548940
vt 0.875000 0.201060
vt 0.583805 0.201060
vt 0.583805 0.548940
vt 0.417244 0.201060
vt 0.417244 0.548940
vt 0.833281 0.201060
vt 0.166719 0.201060
vt 0.667822 0.201060
vt 0.332178 0.201060
vt 0.375000 0.038965
vt 0.625000 0.038965
vt 0.583805 0.038965
vt 0.417244 0.038965
vt 0.833281 0.038965
vt 0.166719 0.038965
vt 0.667822 0.038965
vt 0.332178 0.038965
vt 0.125000 0.038965
vt 0.375000 0.711035
vt 0.625000 0.711035
vt 0.875000 0.038965
vt 0.583805 0.711035
vt 0.417244 0.711035
vt 0.375000 0.750000
vt 0.417244 0.750000
vt 0.417244 0.791719
vt 0.375000 0.791719
vt 0.583805 1.000000
vt 0.583805 0.957178
vt 0.625000 0.957178
vt 0.625000 1.000000
vt 0.625000 0.791719
vt 0.583805 0.791719
vt 0.583805 0.750000
vt 0.625000 0.750000
vt 0.375000 0.957178
vt 0.417244 0.957178
vt 0.417244 1.000000
vt 0.375000 1.000000
vt 0.501475 0.000000
vt 0.501475 1.000000
vt 0.501475 0.250000
vt 0.501475 0.500000
vt 0.501475 0.750000
vt 0.501475 0.458281
vt 0.501475 0.791719
vt 0.501475 0.957178
vt 0.501475 0.292822
vt 0.501475 0.201060
vt 0.501475 0.548940
vt 0.501475 0.711035
vt 0.501475 0.038965
vt 0.252723 0.000000
vt 0.375000 0.877723
vt 0.625000 0.877723
vt 0.747277 0.000000
vt 0.583805 0.877723
vt 0.417244 0.877723
vt 0.252723 0.250000
vt 0.375000 0.372277
vt 0.625000 0.372277
vt 0.747277 0.250000
vt 0.583805 0.372277
vt 0.417244 0.372277
vt 0.252723 0.201060
vt 0.747277 0.201060
vt 0.252723 0.038965
vt 0.747277 0.038965
vt 0.501475 0.372277
vt 0.501475 0.877723
vn 0.000000 0.000000 1.000000
vn 0.000000 0.000000 1.000000
vn 0.000000 0.000000 1.000000
vn 0.000000 0.000000 1.000000
vn 0.000000 1.000000 0.000000
vn 0.000000 1.000000 0.000000
vn 0.000000 1.000000 0.000000
vn 0.000000 1.000000 0.000000
vn 0.000000 0.000000 -1.000000
vn 0.000000 0.000000 -1.000000
vn 0.000000 0.000000 -1.000000
vn 0.000000 0.000000 -1.000000
vn 0.000000 -1.000000 0.000000
vn 0.000000 -1.000000 0.000000
vn 0.000000 -1.000000 0.000000
vn 0.000000 -1.000000 0.000000
vn 1.000000 0.000000 0.000000
vn 1.000000 0.000000 0.000000
vn 1.000000 0.000000 0.000000
vn 1.000000 0.000000 0.000000
vn -1.000000 0.000000 0.000000
vn -1.000000 0.000000 0.000000
vn -1.000000 0.000000 0.000000
vn -1.000000 0.000000 0.000000
vn 0.000000 0.000000 1.000000
vn 0.000000 0.000000 1.000000
vn 0.000000 0.000000 1.000000
vn 0.000000 0.000000 1.000000
vn 0.000000 1.000000 0.000000
vn 0.000000 1.000000 0.000000
vn 0.000000 1.000000 0.000000
vn 0.000000 1.000000 0.000000
vn 0.000000 0.000000 -1.000000
vn 0.000000 0.000000 -1.000000
vn 0.000000 0.000000 -1.000000
vn 0.000000 0.000000 -1.000000
vn 0.000000 -1.000000 0.000000
vn 0.000000 -1.000000 0.000000
vn 0.000000 -1.000000 0.000000
vn 0.000000 -1.000000 0.000000
vn 0.000000 0.000000 1.000000
vn 0.000000 0.000000 1.000000
vn 0.000000 0.000000 1.000000
vn 0.000000 0.000000 1.000000
vn 0.000000 1.000000 0.000000
vn 0.000000 1.000000 0.000000
vn 0.000000 1.000000 0.000000
vn 0.000000 1.000000 0.000000
vn 0.000000 0.000000 -1.000000
vn 0.000000 0.000000 -1.000000
vn 0.000000 0.000000 -1.000000
vn 0.000000 0.000000 -1.000000
vn 0.316228 -0.948683 0.000000
vn 0.247337 -0.936829 -0.247337
vn 0.000000 -0.969269 -0.246004
vn 0.000000 -1.000000 0.000000
vn 0.000000 1.000000 0.000000
vn 0.000000 1.000000 0.000000
vn 0.000000 -0.948683 0.316228
vn 0.247337 -0.936829 0.247337
vn 0.246004 -0.969269 0.000000
vn 0.000000 -1.000000 0.000000
vn 1.000000 0.000000 0.000000
vn 1.000000 0.000000 0.000000
vn 1.000000 0.000000 0.000000
vn 1.000000 0.000000 0.000000
vn -1.000000 0.000000 0.000000
vn -1.000000 0.000000 0.000000
vn -1.000000 0.000000 0.000000
vn -1.000000 0.000000 0.000000
vn 0.000000 1.000000 0.000000
vn 0.000000 1.000000 0.000000
vn 0.000000 -1.000000 0.000000
vn 0.000000 -1.000000 0.000000
vn 0.000000 -1.000000 0.000000
vn 0.000000 -1.000000 0.000000
vn 0.000000 1.000000 0.000000
vn -0.247337 -0.936829 0.247337
vn 0.000000 -0.969269 0.246004
vn 0.000000 -1.000000 0.000000
vn -0.316228 -0.948683 0.000000
vn 0.000000 1.000000 0.000000
vn 0.000000 1.000000 0.000000
vn 1.000000 0.000000 0.000000
vn 1.000000 0.000000 0.000000
vn 1.000000 0.000000 0.000000
vn 1.000000 0.000000 0.000000
vn 0.000000 -0.948683 -0.316228
vn -0.247337 -0.936829 -0.247337
vn -0.246004 -0.969269 0.000000
vn 0.000000 -1.000000 0.000000
vn 0.000000 -1.000000 0.000000
vn 0.000000 -1.000000 0.000000
vn 0.000000 -1.000000 0.000000
vn 0.000000 -1.000000 0.000000
vn 0.000000 -1.000000 0.000000
vn -1.000000 0.000000 0.000000
vn -1.000000 0.000000 0.000000
vn -1.000000 0.000000 0.000000
vn -1.000000 0.000000 0.000000
vn 0.000000 1.000000 0.000000
vn 0.000000 1.000000 0.000000
vn 0.000000 1.000000 0.000000
vn 0.000000 1.000000 0.000000
vn 0.000000 1.000000 0.000000
vn 0.000000 1.000000 0.000000
vn 0.000000 0.000000 1.000000
vn 0.000000 0.000000 1.000000
vn 0.000000 0.000000 -1.000000
vn 1.000000 0.000000 0.000000
vn 1.000000 0.000000 0.000000
vn -1.000000 0.000000 0.000000
vn -1.000000 0.000000 0.000000
vn 0.000000 0.000000 1.000000
vn 0.000000 0.000000 1.000000
vn 0.000000 0.000000 -1.000000
vn 0.000000 0.000000 -1.000000
vn 0.000000 0.000000 -1.000000
vn 0.000000 0.000000 -1.000000
vn 0.000000 0.000000 1.000000
vn 0.000000 0.000000 -1.000000
vn 0.000000 0.000000 -1.000000
vn 1.000000 0.000000 0.000000
vn 1.000000 0.000000 0.000000
vn -1.000000 0.000000 0.000000
vn -1.000000 0.000000 0.000000
vn 1.000000 0.000000 0.000000
vn -1.000000 0.000000 0.000000
vn 0.000000 0.000000 -1.000000
vn 0.000000 0.000000 1.000000
vn 0.000000 0.000000 1.000000
vn 0.000000 0.000000 1.000000
vn 1.000000 0.000000 0.000000
vn 1.000000 0.000000 0.000000
vn -1.000000 0.000000 0.000000
vn -1.000000 0.000000 0.000000
vn 1.000000 0.000000 0.000000
vn -1.000000 0.000000 0.000000
vn 0.000000 0.000000 -1.000000
vn 0.000000 0.000000 -1.000000
vn 1.000000 0.000000 0.000000
vn 1.000000 0.000000 0.000000
vn 1.000000 0.000000 0.000000
vn 1.000000 0.000000 0.000000
vn 0.000000 0.000000 1.000000
vn 0.000000 0.000000 1.000000
vn 0.000000 0.000000 1.000000
vn 0.000000 0.000000 1.000000
vn -1.000000 0.000000 0.000000
vn -1.000000 0.000000 0.000000
vn -1.000000 0.000000 0.000000
vn -1.000000 0.000000 0.000000
vn -1.000000 0.000000 0.000000
vn -1.000000 0.000000 0.000000
vn 0.000000 0.000000 -1.000000
vn 0.000000 0.000000 -1.000000
vn 0.000000 0.000000 -1.000000
vn 0.000000 0.000000 -1.000000
vn 1.000000 0.000000 0.000000
vn 1.000000 0.000000 0.000000
vn 0.000000 0.000000 1.000000
vn 0.000000 0.000000 1.000000
vn 0.000000 0.000000 1.000000
vn 0.000000 0.000000 1.000000
vn 0.000000 0.000000 1.000000
vn 0.000000 0.000000 1.000000
vn -1.000000 0.000000 0.000000
vn -1.000000 0.000000 0.000000
vn -1.000000 0.000000 0.000000
vn -1.000000 0.000000 0.000000
vn 0.000000 0.000000 -1.000000
vn 0.000000 0.000000 -1.000000
vn 1.000000 0.000000 0.000000
vn 1.000000 0.000000 0.000000
vn 0.000000 0.000000 -1.000000
vn 0.000000 0.000000 -1.000000
vn 0.000000 0.000000 -1.000000
vn 0.000000 0.000000 -1.000000
vn 1.000000 0.000000 0.000000
vn 1.000000 0.000000 0.000000
vn 1.000000 0.000000 0.000000
vn 1.000000 0.000000 0.000000
vn 0.000000 0.000000 1.000000
vn 0.000000 0.000000 1.000000
vn -1.000000 0.000000 0.000000
vn -1.000000 0.000000 0.000000
vn -0.316228 -0.948683 0.000000
vn 0.316228 -0.948683 0.000000
vn 0.000000 -0.948683 -0.316228
vn 0.000000 -0.948683 0.316228
s 1
g pCube1
usemtl initialShadingGroup
f 1/1/1 13/20/2 48/66/3 45/63/4
s 2
f 3/3/5 14/22/6 28/42/7 25/38/8
s 3
f 5/5/9 15/23/10 40/58/11 35/52/12
s off
f 57/77/13 58/78/14 59/79/15 60/80/16
s 4
f 2/2/17 30/46/18 51/69/19 46/64/20
s 5
f 7/13/21 19/29/22 50/68/23 53/71/24
s 1
f 10/17/25 37/55/26 34/50/27 4/4/28
s 2
f 11/18/29 21/33/30 18/27/31 6/6/32
s 3
f 12/19/33 55/75/34 54/73/35 8/8/36
s off
f 62/81/37 61/82/38 63/83/39 64/84/40
s 1
f 14/22/41 39/57/42 81/102/43 74/95/44
s 2
f 15/23/45 23/35/46 77/98/47 75/96/48
s 3
f 16/24/49 56/76/50 83/104/51 76/97/52
s 12
f 13/21/53 32/48/54 79/100/55 73/94/56
s 2
f 17/26/57 23/35/46 15/23/45 5/5/58
s 12
f 19/30/59 24/36/60 88/111/61 85/107/62
s 4
f 18/28/63 41/59/64 36/54/65 6/12/66
s 5
f 17/25/67 42/60/68 93/118/69 89/112/70
s 2
f 18/27/31 21/33/30 91/116/71 90/114/72
s off
f 66/85/73 65/86/74 67/87/75 68/88/76
s 2
f 21/33/30 77/98/47 97/122/77 91/116/71
s 12
f 22/34/78 78/99/79 76/97/80 12/19/81
s 2
f 25/38/8 28/42/7 92/117/82 89/113/83
s 4
f 26/40/84 43/61/85 94/119/86 90/115/87
s 12
f 30/45/88 31/47/89 87/110/90 86/108/91
f 31/47/89 79/100/55 98/123/92 87/110/90
s off
f 70/89/93 69/90/94 71/91/95 72/92/96
s 5
f 25/37/97 44/62/98 33/49/99 3/3/100
s 2
f 26/39/101 27/41/102 10/17/103 4/4/104
f 27/41/102 80/101/105 74/95/106 10/17/103
s 1
f 33/49/107 39/57/42 14/22/41 3/3/108
s 3
f 35/52/12 40/58/11 56/76/50 53/72/109
s 4
f 34/50/110 43/61/85 26/40/84 4/4/111
s 5
f 35/51/112 42/60/68 17/25/67 5/14/113
s 1
f 34/50/27 37/55/26 47/65/114 46/64/115
s 3
f 36/53/116 38/56/117 11/18/118 6/6/119
s 1
f 37/55/26 81/102/43 84/105/120 47/65/114
s 3
f 38/56/117 82/103/121 75/96/122 11/18/118
s 4
f 36/54/65 41/59/64 49/67/123 54/74/124
s 5
f 44/62/98 93/118/69 95/120/125 52/70/126
s 4
f 41/59/64 94/119/86 96/121/127 49/67/123
s 5
f 33/49/99 44/62/98 52/70/126 45/63/128
s 1
f 45/63/4 48/66/3 39/57/42 33/49/107
s 4
f 46/64/20 51/69/19 43/61/85 34/50/110
s 5
f 53/71/24 50/68/23 42/60/68 35/51/112
s 3
f 54/73/35 55/75/34 38/56/117 36/53/116
f 55/75/34 83/104/51 82/103/121 38/56/117
f 53/72/109 56/76/50 16/24/49 7/7/129
s 1
f 46/64/115 47/65/114 9/15/130 2/2/131
f 47/65/114 84/105/120 73/93/132 9/15/130
s 4
f 54/74/124 49/67/123 20/32/133 8/11/134
s 5
f 52/70/126 95/120/125 85/106/135 29/43/136
s 4
f 49/67/123 96/121/127 86/109/137 20/32/133
s 5
f 45/63/128 52/70/126 29/43/136 1/1/138
s 3
f 7/7/129 16/24/49 58/78/139 57/77/140
s off
f 16/24/141 24/36/142 59/79/143 58/78/144
f 24/36/145 19/30/146 60/80/147 59/79/148
s 5
f 19/30/22 7/7/21 57/77/149 60/80/150
s off
f 9/16/151 31/47/152 61/82/153 62/81/154
f 31/47/155 30/45/156 63/83/157 61/82/158
s 4
f 30/45/18 2/10/17 64/84/159 63/83/160
s 1
f 2/10/131 9/16/130 62/81/161 64/84/162
s off
f 20/31/163 22/34/164 65/86/165 66/85/166
f 22/34/167 12/19/168 67/87/169 65/86/170
s 3
f 12/19/33 8/8/36 68/88/171 67/87/172
s 4
f 8/8/134 20/31/133 66/85/173 68/88/174
s off
f 29/44/175 32/48/176 69/90/177 70/89/178
f 32/48/179 13/21/180 71/91/181 69/90/182
s 1
f 13/21/2 1/9/1 72/92/183 71/91/184
s 5
f 1/9/138 29/44/136 70/89/185 72/92/186
s 1
f 74/95/44 81/102/43 37/55/26 10/17/25
s 2
f 75/96/48 77/98/47 21/33/30 11/18/29
s 3
f 76/97/52 83/104/51 55/75/34 12/19/33
s 12
f 73/94/56 79/100/55 31/47/89 9/16/187
s 2
f 80/101/105 97/122/77 92/117/82 28/42/7
s 12
f 76/97/80 78/99/79 24/36/60 16/24/188
f 78/99/79 98/123/92 88/111/61 24/36/60
s 2
f 74/95/106 80/101/105 28/42/7 14/22/6
s 1
f 84/105/120 81/102/43 39/57/42 48/66/3
s 3
f 75/96/122 82/103/121 40/58/11 15/23/10
f 82/103/121 83/104/51 56/76/50 40/58/11
s 1
f 73/93/132 84/105/120 48/66/3 13/20/2
s 12
f 85/107/62 88/111/61 32/48/54 29/44/189
s 5
f 89/112/70 93/118/69 44/62/98 25/37/97
s 2
f 90/114/72 91/116/71 27/41/102 26/39/101
f 91/116/71 97/122/77 80/101/105 27/41/102
f 89/113/83 92/117/82 23/35/46 17/26/57
s 4
f 90/115/87 94/119/86 41/59/64 18/28/63
s 12
f 86/108/91 87/110/90 22/34/78 20/31/190
f 87/110/90 98/123/92 78/99/79 22/34/78
s 5
f 95/120/125 93/118/69 42/60/68 50/68/23
s 4
f 96/121/127 94/119/86 43/61/85 51/69/19
s 5
f 85/106/135 95/120/125 50/68/23 19/29/22
s 4
f 86/109/137 96/121/127 51/69/19 30/46/18
s 2
f 92/117/82 97/122/77 77/98/47 23/35/46
s 12
f 88/111/61 98/123/92 79/100/55 32/48/54
